<svg xmlns="http://www.w3.org/2000/svg" viewBox="0 0 64 64" fill="none">
  <defs>
    <linearGradient id="bg" x1="10" y1="6" x2="54" y2="58" gradientUnits="userSpaceOnUse">
      <stop stop-color="#FBF6EC"/>
      <stop offset="1" stop-color="#EEE4D2"/>
    </linearGradient>
    <radialGradient id="glow" cx="0" cy="0" r="1" gradientUnits="userSpaceOnUse" gradientTransform="translate(32 34) rotate(90) scale(12 10)">
      <stop stop-color="#F6D58B"/>
      <stop offset="0.6" stop-color="#E0AB49" stop-opacity="0.65"/>
      <stop offset="1" stop-color="#E0AB49" stop-opacity="0"/>
    </radialGradient>
  </defs>
  <rect width="64" height="64" rx="14" fill="url(#bg)"/>
  <circle cx="32" cy="11.5" r="5.25" stroke="#191513" stroke-width="2.25"/>
  <path d="M27.5 18H36.5" stroke="#191513" stroke-width="2.25" stroke-linecap="round"/>
  <path d="M29 21H35" stroke="#191513" stroke-width="2.25" stroke-linecap="round"/>
  <path
    d="M24 21.5H40L38 25.5V42.5H26V25.5L24 21.5Z"
    stroke="#191513"
    stroke-width="2.5"
    stroke-linejoin="round"
  />
  <circle cx="32" cy="34" r="9.5" fill="url(#glow)"/>
  <path d="M27 27L37 40" stroke="#191513" stroke-width="1.8" stroke-linecap="round"/>
  <path d="M37 27L27 40" stroke="#191513" stroke-width="1.8" stroke-linecap="round"/>
  <path
    d="M32 28.5C34 30.8 34.8 32.3 34.8 33.8C34.8 35.7 33.7 37.4 32 38.3C30.3 37.4 29.2 35.7 29.2 33.8C29.2 32.3 30 30.8 32 28.5Z"
    fill="#E3AB48"
  />
  <path d="M29 43.5H35" stroke="#191513" stroke-width="2.25" stroke-linecap="round"/>
  <path d="M27 47H37" stroke="#191513" stroke-width="2.5" stroke-linecap="round"/>
  <path d="M25 51H39" stroke="#191513" stroke-width="2.75" stroke-linecap="round"/>
</svg>
